<?xml version="1.0" encoding="utf-8"?>
<!-- Generator: Adobe Illustrator 15.0.1, SVG Export Plug-In . SVG Version: 6.00 Build 0)  -->
<!DOCTYPE svg PUBLIC "-//W3C//DTD SVG 1.1//EN" "http://www.w3.org/Graphics/SVG/1.1/DTD/svg11.dtd">
<svg version="1.1" id="Layer_1" xmlns="http://www.w3.org/2000/svg" xmlns:xlink="http://www.w3.org/1999/xlink" x="0px" y="0px"
	 width="129.667px" height="145.334px" viewBox="0 0 129.667 145.334" enable-background="new 0 0 129.667 145.334"
	 xml:space="preserve">
<g>
	<path fill="#54BD88" d="M356.584-1.913H173.415l8.055-6.243c1.202-0.932,2.681-1.438,4.203-1.438h158.653
		c1.523,0,3.002,0.506,4.203,1.438L356.584-1.913z"/>
	<path fill="#0EAF5F" d="M360,170.555c0,4.664-3.781,8.445-8.445,8.445H178.443c-4.663,0-8.444-3.781-8.444-8.445V4.869
		c0-4.664,3.781-8.445,8.444-8.445h173.111c4.664,0,8.445,3.781,8.445,8.445V170.555z"/>
	<path fill="#FFFFFF" d="M301.477,137.287c0,6.332-5.133,11.465-11.463,11.465c-6.332,0-11.465-5.133-11.465-11.465
		s5.133-11.465,11.465-11.465C296.344,125.822,301.477,130.955,301.477,137.287"/>
	<path fill="#FFFFFF" d="M275.459,134.825c0.988-6.083,5.646-10.866,11.701-12.021c2.971-0.565,5.809-0.222,8.311,0.785
		c1.145,0.459,2.404-0.316,2.48-1.548l4.48-72.601c0.023-0.36-0.262-0.664-0.623-0.664h-72.694l11.737,95.074
		c0.128,1.033,1.005,1.808,2.045,1.808h31.945c1.287,0,2.15-1.319,1.637-2.502C275.393,140.664,274.975,137.812,275.459,134.825"/>
	<path fill="#FFFFFF" d="M243.318,52.764h-14.577c-0.977,0-1.769-0.791-1.769-1.769v-2.218h16.346V52.764z"/>
	<path fill="#FFFFFF" d="M301.863,47.437l-72.861-17.248l0.505-2.134c0.229-0.965,1.195-1.561,2.16-1.333l69.979,16.565
		c0.965,0.229,1.561,1.195,1.332,2.16l-0.359,1.523C302.539,47.308,302.201,47.517,301.863,47.437"/>
</g>
<g>
	<path fill="#FFFFFF" d="M99.144,124.146c0,6.332-5.133,11.465-11.464,11.465c-6.332,0-11.465-5.133-11.465-11.465
		s5.133-11.464,11.465-11.464C94.011,112.682,99.144,117.813,99.144,124.146"/>
	<path fill="#FFFFFF" d="M73.126,121.684c0.988-6.082,5.646-10.865,11.7-12.02c2.972-0.566,5.81-0.222,8.312,0.784
		c1.145,0.46,2.404-0.316,2.48-1.547l4.48-72.602c0.023-0.359-0.263-0.664-0.624-0.664H26.781l11.737,95.075
		c0.128,1.032,1.005,1.808,2.045,1.808h31.945c1.288,0,2.151-1.32,1.637-2.503C73.059,127.522,72.641,124.672,73.126,121.684"/>
	<path fill="#FFFFFF" d="M40.984,39.623H26.407c-0.977,0-1.769-0.792-1.769-1.77v-2.218h16.346V39.623z"/>
	<path fill="#FFFFFF" d="M99.53,34.296L26.668,17.048l0.505-2.135c0.229-0.964,1.195-1.561,2.16-1.333l69.98,16.566
		c0.964,0.229,1.561,1.195,1.332,2.16l-0.36,1.522C100.205,34.166,99.867,34.375,99.53,34.296"/>
</g>
</svg>
