<svg xmlns="http://www.w3.org/2000/svg" width="66" height="42" viewBox="0 0 66 42">
  <path fill="#FFFFFF" fill-rule="evenodd" d="M58.7358491,17.2574257 L58.7358491,9.98019802 L53.5471698,9.98019802 L53.5471698,17.2574257 L46.0754717,17.2574257 L46.0754717,22.4554455 L53.5471698,22.4554455 L53.5471698,29.9405941 L58.7358491,29.9405941 L58.7358491,22.4554455 L66,22.4554455 L66,17.2574257 L58.7358491,17.2574257 L58.7358491,17.2574257 Z M20.9622642,16.8415842 L20.9622642,25.1584158 C20.9622642,25.1584158 29.0159245,25.147604 32.2951698,25.147604 C30.5193962,30.539198 27.7581887,33.4752475 20.9622642,33.4752475 C14.0847736,33.4752475 8.71698113,27.8898713 8.71698113,21 C8.71698113,14.1101287 14.0847736,8.52475248 20.9622642,8.52475248 C24.5984906,8.52475248 26.9468868,9.80512871 29.1010189,11.5897129 C30.8253208,9.86230693 30.681283,9.61612871 35.0682075,5.46582178 C31.3441887,2.07005941 26.3946038,0 20.9622642,0 C9.38507547,0 0,9.4019703 0,21 C0,32.5978218 9.38507547,42 20.9622642,42 C38.2669245,42 42.4965283,26.9049505 41.0943396,16.8415842 L20.9622642,16.8415842 L20.9622642,16.8415842 Z"/>
</svg>
