<svg xmlns="http://www.w3.org/2000/svg" width="100" height="27" viewBox="0 0 100 27">
  <g fill="#FFFFFF" fill-rule="evenodd">
    <path d="M15.7554844,4.46283386 L0.444444444,0.755616736 L0.550563892,0.296943189 C0.598685383,0.0897448295 0.801678227,-0.0385719969 1.00446093,0.0104334242 L15.7098845,3.57106416 C15.9124571,3.62028451 16.037699,3.82791274 15.9897877,4.03532604 L15.9141382,4.36267366 C15.8973272,4.43510711 15.8263007,4.48002874 15.7554844,4.46283386"/>
    <g transform="translate(0 4.69)">
      <path d="M3.41214806.887618369L.373476346.887618369C.169814257.887618369.00471663745.718564058.00471663745.51002105L.00471663745.0365835985 3.41214806.0365835985 3.41214806.887618369zM15.5358583 18.9292567C15.5358583 20.2808373 14.4658506 21.3762751 13.1461119 21.3762751 11.8261648 21.3762751 10.7561571 20.2808373 10.7561571 18.9292567 10.7561571 17.577676 11.8261648 16.4822382 13.1461119 16.4822382 14.4658506 16.4822382 15.5358583 17.577676 15.5358583 18.9292567"/>
      <path d="M10.1123181,18.4037795 C10.3184817,17.1053485 11.289264,16.0844056 12.5512602,15.8380815 C13.1707932,15.7172674 13.762393,15.7906951 14.2839514,16.0054282 C14.5224257,16.1036163 14.785081,15.9379772 14.8009237,15.6752173 L15.7350177,0.178358691 C15.7398122,0.101515822 15.6801936,0.0366262889 15.6049408,0.0366262889 L0.451397419,0.0366262889 L2.89805242,20.3306144 C2.92473487,20.5508973 3.10755129,20.716323 3.32434615,20.716323 L9.98349193,20.716323 C10.251984,20.716323 10.4318821,20.4345658 10.3247354,20.182265 C10.0983515,19.6499147 10.0112167,19.0415753 10.1123181,18.4037795"/>
    </g>
    <path d="M21,20.2222222 L21,7 L25.6674155,7 C27.1877346,7 28.4595778,7.50702841 29.4829833,8.52110043 C30.5063887,9.53517245 31.0180838,10.8352841 31.0180838,12.4214744 L31.0180838,14.8007479 C31.0180838,16.3929923 30.5063887,17.6946175 29.4829833,18.7056624 C28.4595778,19.7167073 27.1877346,20.2222222 25.6674155,20.2222222 L21,20.2222222 Z M24.0080872,9.36111111 L24.0080872,17.8611111 L25.463327,17.8611111 C26.2619382,17.8611111 26.8860287,17.5811103 27.3356172,17.0211004 C27.7852057,16.4610905 28.0099966,15.7209804 28.0099966,14.8007479 L28.0099966,12.403312 C28.0099966,11.4891336 27.7852057,10.753564 27.3356172,10.1965812 C26.8860287,9.63959835 26.2619382,9.36111111 25.463327,9.36111111 L24.0080872,9.36111111 Z M38.4717511,19.0598291 C38.1641379,19.4957287 37.7870216,19.8302161 37.3403909,20.0633013 C36.8937602,20.2963865 36.3894595,20.4129274 35.8274739,20.4129274 C34.8336466,20.4129274 34.0542729,20.0860075 33.4893294,19.4321581 C32.924386,18.7783087 32.6419185,17.7642519 32.6419185,16.3899573 L32.6419185,10.3963675 L35.6322588,10.3963675 L35.6322588,16.4081197 C35.6322588,16.9590483 35.734302,17.3707251 35.9383916,17.6431624 C36.1424811,17.9155997 36.4338219,18.0518162 36.8124228,18.0518162 C37.1318673,18.0518162 37.4128559,18.0064107 37.6553971,17.9155983 C37.8979382,17.8247859 38.1049825,17.6885693 38.276536,17.5069444 L38.276536,10.3963675 L41.2757497,10.3963675 L41.2757497,20.2222222 L38.6580928,20.2222222 L38.4717511,19.0598291 Z M45.7479501,10.3963675 L45.8544311,11.6949786 C46.1561287,11.222754 46.5362027,10.8579963 46.9946647,10.6006944 C47.4531267,10.3433926 47.9781318,10.2147436 48.5696956,10.2147436 C49.1671751,10.2147436 49.6818279,10.3479331 50.1136695,10.6143162 C50.5455112,10.8806993 50.8708664,11.2863221 51.089745,11.8311966 C51.385527,11.3165929 51.765601,10.9185377 52.2299787,10.6370192 C52.6943563,10.3555007 53.237108,10.2147436 53.85825,10.2147436 C54.7929209,10.2147436 55.527928,10.5431769 56.0632933,11.2000534 C56.5986586,11.8569299 56.8663372,12.8694732 56.8663372,14.2377137 L56.8663372,20.2222222 L53.85825,20.2222222 L53.85825,14.2377137 C53.85825,13.6020267 53.7621223,13.1661337 53.5698641,12.9300214 C53.3776058,12.6939091 53.0892228,12.5758547 52.7047063,12.5758547 C52.41484,12.5758547 52.1589925,12.6288278 51.937156,12.7347756 C51.7153196,12.8407235 51.5275009,12.9875347 51.3736943,13.1752137 C51.3736943,13.2781344 51.376652,13.367432 51.3825677,13.443109 C51.3884833,13.518786 51.3914411,13.5929484 51.3914411,13.6655983 L51.3914411,20.2222222 L48.3922273,20.2222222 L48.3922273,14.2377137 C48.3922273,13.6020267 48.2975785,13.1661337 48.1082781,12.9300214 C47.9189777,12.6939091 47.626158,12.5758547 47.2298102,12.5758547 C46.9576908,12.5758547 46.7107166,12.6288278 46.4888802,12.7347756 C46.2670437,12.8407235 46.079225,12.9875347 45.9254184,13.1752137 L45.9254184,20.2222222 L42.9262047,20.2222222 L42.9262047,10.3963675 L45.7479501,10.3963675 Z M67.4700663,15.5181624 C67.4700663,16.9953778 67.144711,18.1804621 66.4939908,19.0734509 C65.8432705,19.9664397 64.9263603,20.4129274 63.7432326,20.4129274 C63.2818128,20.4129274 62.872161,20.3221163 62.5142649,20.1404915 C62.1563687,19.9588666 61.8443235,19.6955145 61.5781197,19.3504274 L61.5781197,24 L58.578906,24 L58.578906,10.3963675 L61.3829046,10.3963675 L61.4893856,11.4770299 C61.761505,11.0714011 62.0809447,10.7596165 62.4477143,10.5416667 C62.8144838,10.3237169 63.2404034,10.2147436 63.7254858,10.2147436 C64.9145291,10.2147436 65.835876,10.6839341 66.4895541,11.6223291 C67.1432321,12.5607241 67.4700663,13.7957544 67.4700663,15.3274573 L67.4700663,15.5181624 Z M64.4797259,15.3274573 C64.4797259,14.4980372 64.3614149,13.8320894 64.1247894,13.329594 C63.8881639,12.8270986 63.5095687,12.5758547 62.9889925,12.5758547 C62.6518011,12.5758547 62.3663758,12.6394224 62.1327081,12.7665598 C61.8990404,12.8936972 61.7141794,13.0783464 61.5781197,13.3205128 L61.5781197,17.4252137 C61.7200951,17.6371093 61.9079138,17.7945152 62.1415815,17.8974359 C62.3752492,18.0003566 62.6636323,18.0518162 63.0067393,18.0518162 C63.5332311,18.0518162 63.9103474,17.8293291 64.1380995,17.3843483 C64.3658516,16.9393674 64.4797259,16.3173117 64.4797259,15.5181624 L64.4797259,15.3274573 Z M73.7968101,17.4615385 C73.7968101,17.219372 73.6622313,17.002939 73.3930698,16.8122329 C73.1239082,16.6215268 72.6343965,16.4504993 71.9245198,16.2991453 C70.8064641,16.0751413 69.9634983,15.7270323 69.395597,15.2548077 C68.8276957,14.7825831 68.5437493,14.1378246 68.5437493,13.3205128 C68.5437493,12.4547678 68.8986823,11.7207117 69.6085589,11.1183226 C70.3184355,10.5159336 71.2797124,10.2147436 72.4924183,10.2147436 C73.7701962,10.2147436 74.7876708,10.5068525 75.5448725,11.0910791 C76.3020742,11.6753056 76.6629228,12.4305509 76.627429,13.3568376 L76.6096821,13.4113248 L73.6992025,13.4113248 C73.6992025,13.0238585 73.6030748,12.730236 73.4108166,12.5304487 C73.2185583,12.3306614 72.9094708,12.2307692 72.4835449,12.2307692 C72.170016,12.2307692 71.9067741,12.3185533 71.6938111,12.4941239 C71.4808481,12.6696946 71.3743682,12.8936952 71.3743682,13.1661325 C71.3743682,13.4264614 71.4971158,13.647435 71.7426148,13.8290598 C71.9881138,14.0106847 72.4835411,14.1741446 73.2289116,14.3194444 C74.400208,14.5555567 75.268315,14.9082063 75.8332585,15.3774038 C76.3982019,15.8466013 76.6806694,16.5110356 76.6806694,17.3707265 C76.6806694,18.254634 76.2976376,18.982636 75.5315624,19.5547543 C74.7654872,20.1268725 73.7524493,20.4129274 72.4924183,20.4129274 C71.1850622,20.4129274 70.1513198,20.0738994 69.3911603,19.3958333 C68.6310007,18.7177673 68.2686733,17.9610085 68.3041671,17.1255342 L68.321914,17.071047 L71.0371785,17.071047 C71.0490098,17.5372174 71.1865463,17.8732183 71.4497922,18.0790598 C71.7130381,18.2849013 72.0871966,18.3878205 72.572279,18.3878205 C72.9745424,18.3878205 73.2791932,18.3076041 73.4862406,18.1471688 C73.6932879,17.9867335 73.7968101,17.7581924 73.7968101,17.4615385 Z M81.6409076,7.95352564 L81.6409076,10.3963675 L83.2647422,10.3963675 L83.2647422,12.5213675 L81.6409076,12.5213675 L81.6409076,17.025641 C81.6409076,17.3767824 81.7104153,17.6295398 81.8494328,17.7839209 C81.9884503,17.9383021 82.176269,18.0154915 82.4128945,18.0154915 C82.602195,18.0154915 82.7515626,18.0094374 82.8610019,17.9973291 C82.9704412,17.9852207 83.1109355,17.9610045 83.282489,17.9246795 L83.495451,20.1949786 C83.1641752,20.2736827 82.8654399,20.3296829 82.5992362,20.3629808 C82.3330325,20.3962787 82.0195083,20.4129274 81.6586544,20.4129274 C80.6707427,20.4129274 79.9224257,20.1435212 79.4136808,19.6047009 C78.9049359,19.0658805 78.6505672,18.2122566 78.6505672,17.0438034 L78.6505672,12.5213675 L77.3018084,12.5213675 L77.3018084,10.3963675 L78.6505672,10.3963675 L78.6505672,7.95352564 L81.6409076,7.95352564 Z M89.0590812,20.4129274 C87.6452436,20.4129274 86.5168525,19.9588721 85.673874,19.0507479 C84.8308955,18.1426237 84.4094126,17.0044584 84.4094126,15.6362179 L84.4094126,15.2911325 C84.4094126,13.7957546 84.7924444,12.5743459 85.5585196,11.6268697 C86.3245948,10.6793934 87.4204504,10.2086894 88.8461193,10.2147436 C90.1475598,10.2147436 91.1679921,10.6143122 91.9074469,11.4134615 C92.6469017,12.2126108 93.0166236,13.2962895 93.0166236,14.6645299 L93.0166236,16.2719017 L87.5328541,16.2719017 L87.5151073,16.3263889 C87.5801793,16.8288843 87.781308,17.2420746 88.1184994,17.5659722 C88.4556908,17.8898699 88.9052726,18.0518162 89.4672582,18.0518162 C90.0351595,18.0518162 90.489178,18.0064107 90.8293272,17.9155983 C91.1694764,17.8247859 91.5998327,17.66738 92.1204089,17.4433761 L92.8302819,19.3141026 C92.4102716,19.628919 91.8675199,19.8907575 91.2020106,20.0996261 C90.5365012,20.3084946 89.8221986,20.4129274 89.0590812,20.4129274 Z M88.8461193,12.5758547 C88.4142777,12.5758547 88.0904013,12.7332605 87.8744805,13.0480769 C87.6585597,13.3628933 87.5269387,13.7836512 87.4796136,14.3103632 L87.5062339,14.3557692 L90.0883972,14.3557692 L90.0883972,14.1196581 C90.0883972,13.6232169 89.9878328,13.2418104 89.7867011,12.9754274 C89.5855694,12.7090443 89.2720453,12.5758547 88.8461193,12.5758547 Z M99.7071774,13.1025641 L98.6157475,13.0934829 C98.2726405,13.0934829 97.9916518,13.1525101 97.7727732,13.2705662 C97.5538946,13.3886224 97.391217,13.5566228 97.2847355,13.7745726 L97.2847355,20.2222222 L94.2855217,20.2222222 L94.2855217,10.3963675 L97.1072672,10.3963675 L97.2137482,11.8402778 C97.4148799,11.3256741 97.6810796,10.9261054 98.0123554,10.6415598 C98.3436311,10.3570142 98.7310997,10.2147436 99.1747725,10.2147436 C99.3167479,10.2147436 99.4616788,10.2253382 99.6095698,10.2465278 C99.7574608,10.2677173 99.8876029,10.2934471 100,10.3237179 L99.7071774,13.1025641 Z"/>
  </g>
</svg>
