<svg xmlns="http://www.w3.org/2000/svg" width="56" height="48" viewBox="0 0 56 48">
  <path fill="#FFFFFF" fill-rule="evenodd" d="M56,6.19116408 C53.9423607,7.12820513 51.7269472,7.76188756 49.4030639,8.04502227 C51.7762517,6.58890093 53.5972296,4.28000482 54.4551271,1.52955339 C52.2331396,2.87781389 49.7777778,3.85867341 47.1547808,4.384495 C45.0642719,2.0958228 42.0764219,0.666666667 38.7697365,0.666666667 C32.4291835,0.666666667 27.2850854,5.94173589 27.2850854,12.4470928 C27.2850854,13.3706513 27.3836943,14.2672445 27.5809121,15.1301312 C18.0322827,14.6380161 9.56835124,9.95281088 3.89833891,2.81714217 C2.90896285,4.56313952 2.34360509,6.58890093 2.34360509,8.74611773 C2.34360509,12.8313471 4.37166168,16.4379439 7.4548336,18.5513422 C5.57469038,18.4940412 3.79973,17.9581076 2.24828315,17.0817383 L2.24828315,17.2266763 C2.24828315,22.9365595 6.20907437,27.6992898 11.4682162,28.7778982 C10.5051359,29.0542916 9.48946411,29.1924883 8.4409227,29.1924883 C7.70135587,29.1924883 6.97822387,29.1217046 6.2781006,28.9835079 C7.74079944,33.6619718 11.9809826,37.0697003 17.010037,37.1607078 C13.0788284,40.3223787 8.12208722,42.2065728 2.7413277,42.2065728 C1.81440394,42.2065728 0.897341081,42.1526423 0,42.0447815 C5.08493279,45.3817263 11.126372,47.3333333 17.6115513,47.3333333 C38.7467277,47.3333333 50.300405,29.3846154 50.300405,13.8155772 C50.300405,13.3032382 50.2905441,12.7908992 50.2708223,12.2886722 C52.5158185,10.6269411 54.464988,8.55399061 56,6.19116408"/>
</svg>
